/* XPM */
static char *d9a7ecb7028d4881cc629a67cb17f6a0oD2dw8nGCZj6b1cp[] = {
/* columns rows colors chars-per-pixel */
"57 82 76 1 ",
"  c black",
". c #070707",
"X c #150404",
"o c #170F07",
"O c #041504",
"+ c #151504",
"@ c #1F170B",
"# c #131313",
"$ c #191919",
"% c #1B1B1B",
"& c #2B0808",
"* c #1D2F1D",
"= c #2B230F",
"- c #2F2F1D",
"; c #332B13",
": c #3F2F17",
"> c gray20",
", c #400B0B",
"< c #560F0F",
"1 c #43331B",
"2 c #4B371B",
"3 c #533F1F",
"4 c #334421",
"5 c #374837",
"6 c #5F4323",
"7 c #5B472B",
"8 c #484837",
"9 c #4C5E3B",
"0 c #6B4727",
"q c #774F2B",
"w c #7F532F",
"e c #4C4C4C",
"r c #506250",
"t c #626250",
"y c gray40",
"u c #7B7B6A",
"i c gray50",
"p c #875733",
"a c #8F5F37",
"s c #9B633B",
"d c #A36B3F",
"f c #AB6F43",
"g c #B37347",
"h c #BF7B4B",
"j c #CB7F4F",
"k c #A68271",
"l c #BC9875",
"z c #CF8353",
"x c #D78B5B",
"c c #DF9363",
"v c #D19C79",
"b c #E79B6B",
"n c #EFA373",
"m c #F7AB7B",
"M c cyan",
"N c #839583",
"B c #959583",
"V c gray60",
"C c #99AA87",
"Z c #AAAA87",
"A c #AEAE9D",
"S c #B2B2B2",
"D c #FFB383",
"F c #FFBF9B",
"G c #AEC08B",
"H c #B2C4A1",
"J c #C7D9A4",
"K c #C8C8B6",
"L c #CCDDBA",
"P c #DDDDBA",
"I c #E1F3BE",
"U c #95B1C8",
"Y c gray80",
"T c gray90",
"R c #FBFBE9",
"E c white",
/* pixels */
"MMMMMMMMMMMMMMMMMMMMMMMMMMMMMEEEEEE$MMMMMMMMMMMMMMMMMMMMU",
"MMMMMMMMMMMMMMMMMMMMMMMMMMMMiEEEEEEiMMMMMMMMMMMMMMMMMMMMU",
"MMMMMMMMMMMMMMMMMMMMMMMMMMMMCEEEEEESMMMMMMMMMMMMMMMMMMMMU",
"MMMMMMMMMMMMMMMMMMMMMMMMMMM>PEGJEEEE>MMMMMMMMMMMMMMMMMMMU",
"MMMMMMMMMMMMMMMMMMMMMMMMMMMtEGGJPYEEeMMMMMMMMMMMMMMMMMMMU",
"MMMMMMMMMMMMMMMMMMMMMMMMMM-tEZGHHYEEe>MMMMMMMMMMMMMMMMMMU",
"MMMMMMMMMMMMMMMMMMMMMMMMMMruECGGGYEEi>MMMMMMMMMMMMMMMMMMU",
"MMMMMMMMMMMMMMMMMMMMMMMMMerBEGGGGSEEEe>MMMMMMMMMMMMMMMMMU",
"MMMMMMMMMMMMMMMMMMMMMMMMMerLEEIJGSEEEe>MMMMMMMMMMMMMMMMMU",
"MMMMMMMMMMMMMMMMMMMMMMMMMetEEEEEEEEEEi>MMMMMMMMMMMMMMMMMU",
"MMMMMMMMMMMMMMMMMMMMMMMMMeiEEEEEEEEEESyMMMMMMMMMMMMMMMMMU",
"MMMMMMMMMMMMMMMMMMMMMMMMMtHO>       eiiMMMMMMMMMMMMMMMMMU",
"MMMMMMMMMMMMMMMMMMMMMMMM4uEEEEEEEEEEEEEeMMMMMMMMMMMMMMMMU",
"MMMMMMMMMMMMMMMMMMMMMMtu5KEEEEEEEEEEEEESiiiMMMMMMMMMMMMMU",
"MMMMMMMMMMMMMMMMMMMMMM-4>REEEEEEEEEEEEETeeeMMMMMMMMMMMMMU",
"MMMMMMMMMMMMMMMMMMMMMM$>8EEEEEEEEEEEEEEE eyMMMMMMMMMMMMMU",
"MMMMMMMMMMMMMMMMMMMMMMee*EEeeiiyeeyiieiEi$eMMMMMMMMMMMMMU",
"MMMMMMMMMMMMMMMMMMMMMMe8-EiiiiiiiiiiiiiSS>MMMMMMMMMMMMMMU",
"MMMMMMMMMMMMMMMMMMMMMMMMeyiiiiuiiiiiiiiySMMMMMMMMMMMMMMMU",
"MMMMMMMMMMMMMMMMMMMMMMMM8EEEEEEVVVVVEEEEEMMMMMMMMMMMMMMMU",
"MMMMMMMMMMMMMMMMMMMMMMMMeEEEEEEVVVVEEEEEEMMMMMMMMMMMMMMMU",
"MMMMMMMMMMMMMMMMMMMMMMMMAEEEEEEEVVVEEEEEEiMMMMMMMMMMMMMMU",
"MMMMMMMMMMMMMMMMMMMMMMMMAEEEEEEEVVEEEEEEESMMMMMMMMMMMMMMU",
"MMMMMMMMMMMMMMMMMMMMMMMMCEEEEEEEEVEEEEEEETMMMMMMMMMMMMMMU",
"MMMMMMMMMMMMMMMMMMMMMMMeBZCCCCBBCVVVVVVVVVeMMMMMMMMMMMMMU",
"MMMMMMMMMMMMMMMMMMMMMMM8uBBBBuiBBVVViiiiiiiMMMMMMMMMMMMMU",
"MMMMMMMMMMMMMMMMMMMMMMe8iBBNVlkiiiiilkiiiiiyMMMMMMMMMMMMU",
"MMMMMMMMMMMMMMMMMMMMM-rtiiiiivviiiiivviiiiiyMMMMMMMMMMMMU",
"MMMMMMMMMMMMMMMMMMMMM8rtiiiiiiiiiiiiiiiiiiieeMMMMMMMMMMMU",
"MMMMMMMMMMMMMMMMMMMMe89euuuuuuuiiiiiiiiiiiiey>MMMMMMMMMMU",
"MMMMMMMMMMMMMMMMMMMMe8euuuuuuiiiiiiiiiyyyyyyyeMMMMMMMMMMU",
"MMMMMMMMMMMMMMMMMMMM89tyyyyyyyyyyyyyyyyyyyyyyeMMMMMMMMMMU",
"MMMMMMMMMMMMMMMMMMMM-9ttttttttyyyyeeeeeeeeeeye>MMMMMMMMMU",
"MMMMMMMMMMMMMMMMMMM88etttttttyyyyyyyyyyeeeeeeeeMMMMMMMMMU",
"MMMMMMMMMMMMMMMMMMM88etttttttyyyyyyyyyyyyyyyyy>MMMMMMMMMU",
"MMMMMMMMMMMMMMMMMMM-eyytttytyyyyyyyyyyyyyyyyyye$MMMMMMMMU",
"MMMMMMMMMMMMMMMMMMM-eyytyttteeeeeeeeeeeeyyyyyyeeMMMMMMMMU",
"MMMMMMMMMMMMMMMMMMM8ttttttreeeeX&&&Xeeeeeeyyeee>MMMMMMMMU",
"MMMMMMMMMMMMMMMMMM$8yyyyeee>eee&,&,&eeeeeeeeeeeeMMMMMMMMU",
"MMMMMMMMMMMMMMMMMM*eeeeee8-eeee&,,,Xeeeeeeeeeeee$MMMMMMMU",
"MMMMMMMMMMMMMMMMMM>e88888->eeee,,,,&eeee>>eeeee>>MMMMMMMU",
"MMMMMMMMMMMMMMMMMM--ee88>*>>>ee,<<<&ee>>>$>ee>>>$MMMMMMMU",
"MMMMMMMMMMMMMMMMMM**>---$$$$>>>,,,,,>>>$$$$>>>$$$MMMMMMMU",
"MMMMMMMMMMMMMMMMMM$$$*>>$$$$$$$,,,,&>$$$$$$>$$$$$MMMMMMMU",
"MMMMMMMMMMMMMMMMMM$$$$$O+OO  $>,,,,,$$$$   $$$   MMMMMMMU",
"MMMMMMMMMMMMMMMMMMOOOO+OOOO   $>>>>>$       $    MMMMMMMU",
"MMMMMMMMMMMMMMMMMMOOOOOOOOO    >ee>>             MMMMMMMU",
"MMMMMMMMMMMMMMMMMM   OOOOOO                      MMMMMMMU",
"MMMMMMMMMMMMMMMMMM   OOOOOO                      MMMMMMMU",
"MMMMMMMMMMMMMMMMaa   OO+++++$                    MMMMMMMU",
"MMMMMMMMMMMMMMMasa0  OO>>>>>>$$$$                MMMMMMMU",
"MMMMMMMMMMMMMMasfs0: OO----->>>>$$$$$           $MMMMMMMU",
"MMMMMMMMMMMMMasffhp6 OO>>>>-->>>>>>$$$$$$$$$    $MMMMMMMU",
"MMMMMMMMMMM0affffhgpqOO8888e>>>>>>>>>>>$$$$$    >MMMMMMMU",
"MMMMMMMMMqpafddddzhdq6O888888ee>>>>>>>>>>>>=2300022:MMMMU",
"MMMMMMMM0paddfdddjchdq68888888eee>>>>>>>>>=3waawww003MMMU",
"MMMMMMM0aapdffdsdgzccjaa6e88888eeeeee>>>=0qsffsaawwaw:MMU",
"MMMMMMM0aasffgfsddhzbbbjaa6:::;eeeeeoo:30gcbcxzzhgasf0:MU",
"MMMMMMM0aagddgffsdffxcbbbjfsq66:====:3sgcFFDnbcxzhsasq:MU",
"MMMMMMM0qsgfddggfsddhzzxcczzzzgspadfjxnmmDFFDbczhfs0wp:MU",
"MMMMMMM2qsgddddhggsssffjzxzgggspadfxbbccnmDFFbzgfs033p:MU",
"MMMMMM62qpddsddghhggsaaffhgffsssfjxxjjjxcbnDFbhgda6:;00:U",
"MMMMMpw20qpssaasdgghzhfawssssfgjgghjhhzzhxcbbhgdsw0o=:6:U",
"MMMM0fq:6qqpaaaasdghhddasshhhhgghhzzjgfhhzxczgdsaw7oo$2:U",
"MMMM0a3;260qwwpaaaddddssfhffffhhxbnbcjhffzxzhfsspq2oo 2:U",
"MMMM0q2;2660qwppaasspsfffgggffzxbnmnbzhdfhzjhdaap71o::$MU",
"MMMM03==;20660qwwppppssffdggsfsghzxcbzfafgjhgdawq71o$$MMU",
"MMMMM:@=;6w0660qqppaaasggffhzzffssghzzspaghggspw77=oMMMMU",
"MMMMM=o=:6awwqq00aagdadfddsfffzzhhssfgawpgggdsw721==MMMMU",
"MMMMM==;1qfspwwpdgdaggzzbcxgssffzzffsaq6qggfsw031=o=MMMMU",
"MMMMM=:23shfffapgggffffsssdzzxzgppgda0::0ddap01=o =MMMMMU",
"MMMMM=:33fhgdapsgxxcbnbcxzgssghzzpwadp220pp062:=. MMMMMMU",
"MMMMMM:20gdsapgzcbzfswsfzcnczgsgzgpqpa620q0621=o .MMMMMMU",
"MMMMMM:20dsqszbbzappq00wpdffhzzgadd220w37762:=o  MMMMMMMU",
"MMMMMM:300qpjzfappsffssspppppqpsffsa2;30:2:==o. @MMMMMMMU",
"MMMMMM306qpfdapfzbDDbzzzhgfsaqqqpssww2@:2:=oo.. oMMMMMMMU",
"MMMMMM36aafhhzccDDbzddppppsfffsq060paw:@:2=o. @  MMMMMMMU",
"MMMMM23sgsasssafzcDDbccg060psfffsq616w0:.;=  #o  MMMMMMMU",
"MMM66sggsp066666600addzcbjp03ppsfs06=603=.  #.  MMMMMMMMU",
"6;;:2pppppppsfzbmncxgsa20qafjdp0wsga6;:::oo    MMMMMMMMMU",
"===::3333666660pgzbmmzggs220axjd0dhf02 ==   #@MMMMMMMMMMU",
"===:0ffappaawwq06:6fxzzjjgs20ajxfdxjq3=       MMMMMMMMMMU"
};
