/* XPM */
static char *fe259df82fe3437b877d9f705f1c769fdas0A6zQ1gMMZeQR[] = {
/* columns rows colors chars-per-pixel */
"79 99 79 1 ",
"  c black",
". c #070707",
"X c #150404",
"o c #170F07",
"O c #041504",
"+ c #151504",
"@ c #1F170B",
"# c #131313",
"$ c #191919",
"% c #1B1B1B",
"& c #2B0808",
"* c #1D2F1D",
"= c #2B230F",
"- c #2F2F1D",
"; c #332B13",
": c #3F2F17",
"> c gray20",
", c #373737",
"< c #400B0B",
"1 c #560F0F",
"2 c #43331B",
"3 c #4B371B",
"4 c #533F1F",
"5 c #334421",
"6 c #374837",
"7 c #5F4323",
"8 c #5B472B",
"9 c #484837",
"0 c #4C5E3B",
"q c #6B4727",
"w c #774F2B",
"e c #7F532F",
"r c #4C4C4C",
"t c #506250",
"y c #626250",
"u c gray40",
"i c #7B7B6A",
"p c gray50",
"a c #875733",
"s c #8F5F37",
"d c #9B633B",
"f c #A36B3F",
"g c #AB6F43",
"h c #B37347",
"j c #BF7B4B",
"k c #CB7F4F",
"l c #A68271",
"z c #BC9875",
"x c #CF8353",
"c c #D78B5B",
"v c #DF9363",
"b c #D19C79",
"n c #E79B6B",
"m c #EFA373",
"M c #F7AB7B",
"N c cyan",
"B c #839583",
"V c #959583",
"C c gray60",
"Z c #99AA87",
"A c #AAAA87",
"S c #AEAE9D",
"D c #B2B2B2",
"F c #FFB383",
"G c #FFBB93",
"H c #FFBF9B",
"J c #AEC08B",
"K c #B2C4A1",
"L c #FFC79B",
"P c #C7D9A4",
"I c #C8C8B6",
"U c #CCDDBA",
"Y c #DDDDBA",
"T c #E1F3BE",
"R c #95B1C8",
"E c gray80",
"W c gray90",
"Q c #FBFBE9",
"! c white",
/* pixels */
"NNNNNNNNNNNNNNNNNNNNNNNNNNNNNNNNNNNNNNNNNNNNNNNNNNNE!!!!rNNNNNNNNNNNNNNNNNNNNNR",
"NNNNNNNNNNNNNNNNNNNNNNNNNNNNNNNNNNNNNNNNNNNNNNNNNNN!!!!!!$NNNNNNNNNNNNNNNNNNNNR",
"NNNNNNNNNNNNNNNNNNNNNNNNNNNNNNNNNNNNNNNNNNNNNNNNNNp!!!!!!pNNNNNNNNNNNNNNNNNNNNR",
"NNNNNNNNNNNNNNNNNNNNNNNNNNNNNNNNNNNNNNNNNNNNNNNNNNZ!!!!!!DNNNNNNNNNNNNNNNNNNNNR",
"NNNNNNNNNNNNNNNNNNNNNNNNNNNNNNNNNNNNNNNNNNNNNNNNN>Y!JP!!!!>NNNNNNNNNNNNNNNNNNNR",
"NNNNNNNNNNNNNNNNNNNNNNNNNNNNNNNNNNNNNNNNNNNNNNNNNy!JJPYE!!rNNNNNNNNNNNNNNNNNNNR",
"NNNNNNNNNNNNNNNNNNNNNNNNNNNNNNNNNNNNNNNNNNNNNNNN-y!AJKKE!!r>NNNNNNNNNNNNNNNNNNR",
"NNNNNNNNNNNNNNNNNNNNNNNNNNNNNNNNNNNNNNNNNNNNNNNNti!ZJJJE!!p>NNNNNNNNNNNNNNNNNNR",
"NNNNNNNNNNNNNNNNNNNNNNNNNNNNNNNNNNNNNNNNNNNNNNNrtV!JJJJD!!!r>NNNNNNNNNNNNNNNNNR",
"NNNNNNNNNNNNNNNNNNNNNNNNNNNNNNNNNNNNNNNNNNNNNNNrtU!!TPJD!!!r>NNNNNNNNNNNNNNNNNR",
"NNNNNNNNNNNNNNNNNNNNNNNNNNNNNNNNNNNNNNNNNNNNNNNry!!!!!!!!!!p>NNNNNNNNNNNNNNNNNR",
"NNNNNNNNNNNNNNNNNNNNNNNNNNNNNNNNNNNNNNNNNNNNNNNrp!!!!!!!!!!DuNNNNNNNNNNNNNNNNNR",
"NNNNNNNNNNNNNNNNNNNNNNNNNNNNNNNNNNNNNNNNNNNNNNNyKO>       rppNNNNNNNNNNNNNNNNNR",
"NNNNNNNNNNNNNNNNNNNNNNNNNNNNNNNNNNNNNNNNNNNNNN5i!!!!!!!!!!!!!rNNNNNNNNNNNNNNNNR",
"NNNNNNNNNNNNNNNNNNNNNNNNNNNNNNNNNNNNNNNNNNNNyi6I!!!!!!!!!!!!!DpppNNNNNNNNNNNNNR",
"NNNNNNNNNNNNNNNNNNNNNNNNNNNNNNNNNNNNNNNNNNNN-5>Q!!!!!!!!!!!!!WrrrNNNNNNNNNNNNNR",
"NNNNNNNNNNNNNNNNNNNNNNNNNNNNNNNNNNNNNNNNNNNN$>9!!!!!!!!!!!!!!! ruNNNNNNNNNNNNNR",
"NNNNNNNNNNNNNNNNNNNNNNNNNNNNNNNNNNNNNNNNNNNNrr*!!rrppurrupprp!p$rNNNNNNNNNNNNNR",
"NNNNNNNNNNNNNNNNNNNNNNNNNNNNNNNNNNNNNNNNNNNNr9-!pppppppppppppDD>NNNNNNNNNNNNNNR",
"NNNNNNNNNNNNNNNNNNNNNNNNNNNNNNNNNNNNNNNNNNNNNNruppppippppppppuDNNNNNNNNNNNNNNNR",
"NNNNNNNNNNNNNNNNNNNNNNNNNNNNNNNNNNNNNNNNNNNNNN9!!!!!!CCCCC!!!!!NNNNNNNNNNNNNNNR",
"NNNNNNNNNNNNNNNNNNNNNNNNNNNNNNNNNNNNNNNNNNNNNNr!!!!!!CCCC!!!!!!NNNNNNNNNNNNNNNR",
"NNNNNNNNNNNNNNNNNNNNNNNNNNNNNNNNNNNNNNNNNNNNNNS!!!!!!!CCC!!!!!!pNNNNNNNNNNNNNNR",
"NNNNNNNNNNNNNNNNNNNNNNNNNNNNNNNNNNNNNNNNNNNNNNS!!!!!!!CC!!!!!!!DNNNNNNNNNNNNNNR",
"NNNNNNNNNNNNNNNNNNNNNNNNNNNNNNNNNNNNNNNNNNNNNNZ!!!!!!!!C!!!!!!!WNNNNNNNNNNNNNNR",
"NNNNNNNNNNNNNNNNNNNNNNNNNNNNNNNNNNNNNNNNNNNNNrVAZZZZVVZCCCCCCCCCrNNNNNNNNNNNNNR",
"NNNNNNNNNNNNNNNNNNNNNNNNNNNNNNNNNNNNNNNNNNNNN9iVVVVipVVCCCpppppppNNNNNNNNNNNNNR",
"NNNNNNNNNNNNNNNNNNNNNNNNNNNNNNNNNNNNNNNNNNNNr9pVVBCzlpppppzlpppppuNNNNNNNNNNNNR",
"NNNNNNNNNNNNNNNNNNNNNNNNNNNNNNNNNNNNNNNNNNN-typppppbbpppppbbpppppuNNNNNNNNNNNNR",
"NNNNNNNNNNNNNNNNNNNNNNNNNNNNNNNNNNNNNNNNNNN9typpppppppppppppppppprrNNNNNNNNNNNR",
"NNNNNNNNNNNNNNNNNNNNNNNNNNNNNNNNNNNNNNNNNNr90riiiiiiippppppppppppru>NNNNNNNNNNR",
"NNNNNNNNNNNNNNNNNNNNNNNNNNNNNNNNNNNNNNNNNNr9riiiiiipppppppppuuuuuuurNNNNNNNNNNR",
"NNNNNNNNNNNNNNNNNNNNNNNNNNNNNNNNNNNNNNNNNN90yuuuuuuuuuuuuuuuuuuuuuurNNNNNNNNNNR",
"NNNNNNNNNNNNNNNNNNNNNNNNNNNNNNNNNNNNNNNNNN-0yyyyyyyyuuuurrrrrrrrrrur>NNNNNNNNNR",
"NNNNNNNNNNNNNNNNNNNNNNNNNNNNNNNNNNNNNNNNN99ryyyyyyyuuuuuuuuuurrrrrrrrNNNNNNNNNR",
"NNNNNNNNNNNNNNNNNNNNNNNNNNNNNNNNNNNNNNNNN99ryyyyyyyuuuuuuuuuuuuuuuuu>NNNNNNNNNR",
"NNNNNNNNNNNNNNNNNNNNNNNNNNNNNNNNNNNNNNNNN-ruuyyyuyuuuuuuuuuuuuuuuuuur$NNNNNNNNR",
"NNNNNNNNNNNNNNNNNNNNNNNNNNNNNNNNNNNNNNNNN-ruuyuyyyrrrrrrrrrrrruuuuuurrNNNNNNNNR",
"NNNNNNNNNNNNNNNNNNNNNNNNNNNNNNNNNNNNNNNN,9yyyyyytrrrrX&&&Xrrrrrruurrr>NNNNNNNNR",
"NNNNNNNNNNNNNNNNNNNNNNNNNNNNNNNNNNNNNNNN$9uuuurrr>rrr&<&<&rrrrrrrrrrrrNNNNNNNNR",
"NNNNNNNNNNNNNNNNNNNNNNNNNNNNNNNNNNNNNNNN*rrrrrr9-rrrr&<<<Xrrrrrrrrrrrr$NNNNNNNR",
"NNNNNNNNNNNNNNNNNNNNNNNNNNNNNNNNNNNNNNNN>r99999->rrrr<<<<&rrrr>>rrrrr>>NNNNNNNR",
"NNNNNNNNNNNNNNNNNNNNNNNNNNNNNNNNNNNNNNNN--rr99>*>>>rr<111&rr>>>$>rr>>>$NNNNNNNR",
"NNNNNNNNNNNNNNNNNNNNNNNNNNNNNNNNNNNNNNNN**>---$$$$>>><<<<<>>>$$$$>>>$$$NNNNNNNR",
"NNNNNNNNNNNNNNNNNNNNNNNNNNNNNNNNNNNNNNNN$$$*>>$$$$$$$<<<<&>$$$$$$>$$$$$NNNNNNNR",
"NNNNNNNNNNNNNNNNNNNNNNNNNNNNNNNNNNNNNNNN$$$$$O+OO  $><<<<<$$$$   $$$   NNNNNNNR",
"NNNNNNNNNNNNNNNNNNNNNNNNNNNNNNNNNNNNNNNNOOOO+OOOO   $>>>>>$       $    NNNNNNNR",
"NNNNNNNNNNNNNNNNNNNNNNNNNNNNNNNNNNNNNNNNOOOOOOOOO    >rr>>             NNNNNNNR",
"NNNNNNNNNNNNNNNNNNNNNNNNNNNNNNNNNNNNNNNN   OOOOOO                      NNNNNNNR",
"NNNNNNNNNNNNNNNNNNNNNNNNNNNNNNNNNNNNNNss   OOOOOO                      NNNNNNNR",
"NNNNNNNNNNNNNNNNNNNNNNNNNNNNNNNNNNNNNsds   OO+++++$                    NNNNNNNR",
"NNNNNNNNNNNNNNNNNNNNNNNNNNNNNNNNNNNNsdgdq  OO>>>>>>$$$$                NNNNNNNR",
"NNNNNNNNNNNNNNNNNNNNNNNNNNNNNNNNNNNsdggja7 OO----->>>>$$$$$           $NNNNNNNR",
"NNNNNNNNNNNNNNNNNNNNNNNNNNNNNNNNNNwsdgjjgw OO>>>>-->>>>>>$$$$$$$$$    $NNNNNNNR",
"NNNNNNNNNNNNNNNNNNNNNNNNNNNNNNNNNqsggggjhawOO9999r>>>>>>>>>>>$$$$$    >NNNNNNNR",
"NNNNNNNNNNNNNNNNNNNNNNNNNNNNNNNwasgffffxjfw7O999999rr>>>>>>>>>>>>=34qqq33:NNNNR",
"NNNNNNNNNNNNNNNNNNNNNNNNNNNNNNqasffgfffkvjfw79999999rrr>>>>>>>>>=4esseeeqq4NNNR",
"NNNNNNNNNNNNNNNNNNNNNNNNNNNNNqssafggfdfhxvvkss7r99999rrrrrr>>>=qwdggdsseese:NNR",
"NNNNNNNNNNNNNNNNNNNNNNNNNNNNNqssdgghgdffjxnnnkss7:::;rrrrroo:4qhvnvcxxhhsdgq:NR",
"NNNNNNNNNNNNNNNNNNNNNNNNNNNNNqsshffhggdfggcvnnnkgdw77:====:4dhvHHFmnccxhdsdw:NR",
"NNNNNNNNNNNNNNNNNNNNNNNNNNNNNqwdhgffhhgdffjxxcvvxxxxhdasfgkcmMMFHHFnxxhgdqea:NR",
"NNNNNNNNNNNNNNNNNNNNNNNNNNNNN3wdhffffjhhdddggkxcxhhhdasfgcnnvvmMFHHnjhgdq44a:NR",
"NNNNNNNNNNNNNNNNNNNNNNNNNNNN73waffdffhjjhhdssggjhggdddgkcckkkccnnFHcjhfs7:;qq:R",
"NNNNNNNNNNNNNNNNNNNNNNNNNNN7e4wadfddddhjxxjhsaaaeddddgkkjxxkxkjcnmMkhgdaq==37:R",
"NNNNNNNNNNNNNNNNNNNNNNNNNN7ae3qwaddssdfhhjxjgseddddghkhhjkjjxxjjxcvjhfdeqo=:7:R",
"NNNNNNNNNNNNNNNNNNNNNNNNNNwg4:7wwassssdfhjjffsddjjjjhhjjxxkhgjjxccxhfdse8oo$3:R",
"NNNNNNNNNNNNNNNNNNNNNNNNNNge3;37qweeasssffffddgjggggjjcnmnvkjggxcxjgddaw3oo 3:R",
"NNNNNNNNNNNNNNNNNNNNNNNNNNd4;;377qweaassddadggghhhggxcnmMmnxjfgjxkjfssa82o::$NR",
"NNNNNNNNNNNNNNNNNNNNNNNNNNw3==;3q77qweeaaaaddggfhhdgdhjxcvnxgsghkjhfsew82o$$NNR",
"NNNNNNNNNNNNNNNNNNNNNNNNNNq:@=;7eq77qwwaasssdhhggjxxggddhjxxdashjhhdae88=oNNNNR",
"NNNNNNNNNNNNNNNNNNNNNNNNNN4=o=:7seewwqqsshfsfgffdgggxxjjddghseahhhfde832==NNNNR",
"NNNNNNNNNNNNNNNNNNNNNNNNNNN==;2wgdaeeafhfshhxxnvchddggxxggdsw7whhgdeq42=o=NNNNR",
"NNNNNNNNNNNNNNNNNNNNNNNNNNN=;:2aggddfhsshhjjjjxxnvxhjssgxhaw73qddssq73=o=NNNNNR",
"NNNNNNNNNNNNNNNNNNNNNNNNNNN=:34djgggsahhhggggdddfxxcxhaahfsq::qsaeq32=o =NNNNNR",
"NNNNNNNNNNNNNNNNNNNNNNNNNNN=:44gjhfsadhccvnmnvcxhddhjxxaesfa33qaeq73:=. NNNNNNR",
"NNNNNNNNNNNNNNNNNNNNNNNNNNNN:3qhfdsahxvnxgdedgxvmvxhdhxhawas73qwq732=o .NNNNNNR",
"NNNNNNNNNNNNNNNNNNNNNNNNNNNN:3qfdwdxnnxsaawqqeafggjxxhsff33qe48873:=o  NNNNNNNR",
"NNNNNNNNNNNNNNNNNNNNNNNNNNNN:4qqwakxgsaadggdddaaaaawadggds3;4q:3:==o. @NNNNNNNR",
"NNNNNNNNNNNNNNNNNNNNNNNNNNNN4q7wagfsagxnFFnxxxjhgdswwwaddee3@:3:=oo.. o;NNNNNNR",
"NNNNNNNNNNNNNNNNNNNNNNNNNNNN47ssgjjxvvFFnxffaaaadgggdwq7qase:@:3=o. @   NNNNNNR",
"NNNNNNNNNNNNNNNNNNNNNNNNNN=34dhdsdddsgxvFFnvvhq7qadgggdw727eq:.;=  #o   NNNNNNR",
"NNNNNNNNNNNNNNNNNNNNNNNN77adhhdaq777777qqsffxvnkaq4aadgdq7=7q4=.  #.    NNNNNNR",
"NNNNNNNNNNNNNNNNNNNNNN77:7qadhccnmMMMnxhseqqeffgxka4qedgdq3:44== o     NNNNNNNR",
"NNNNNNNNNNNNNNNNNNNNN7;;:3waaaaaaadgxnMmvchds3qwsgkfaqedhs7;:::oo     NNNNNNNNR",
"NNNNNNNNNNNNNNNNNNNN7===:::444477777qahxnMMxhhd33qsckfqfjgq3 ==   #@NNNNNNNNNNR",
"NNNNNNNNNNNNNNNNNNNN;===:qaggsaasseewq7:7gcxxkkhd3qskcgfckw4=       NNNNNNNNNNR",
"NNNNNNNNNNNNNNNNNNNN==::awgxnxdhhcxgswwq7::wgxxckhq3qdcccgw4=       NNNNNNNNNNR",
"NNNNNNNNNNNNNNNNNNNN4=ajgdgcvkahvxvxdsawwq7:7agxckhe34dhjfw4=       NNNNNNNNNNR",
"NNNNNNNNNNNNNNNNNNN34edkksgkvkahkxjxhaahdwq4:;7agkvhe34sfaw4=       NNNNNNNNNNR",
"NNNNNNNNNNNNNNNNN4447gfgmgghhvfgcvhvjddxhswq4:;7ashvhe:wdaw4=   o  NNNNNNNNNNNR",
"NNNNNNNNNNNNNNNNw7qdggcxvhdhdmhacvvvxfgjxfswq4$;7eshvh7:7aw4=   NNNNNNNNNNNNNNR",
"NNNNNNNNNNNNNN3wqeehcckgvhvdackhxvcvjgsjffswq73$;77shxw::773   NNNNNNNNNNNNNNNR",
"NNNNNNNNNNNNNe37wagcgcmncxmhfvmxhnvmgasffssqqq4$$;77dgh3:;:=   NNNNNNNNNNNNNNNR",
"NNNNNNNNNNN:4qfshgvcvgvnccGxhmmxhnnvgasssssqqw3;$ :3wsd7===    NNNNNNNNNNNNNNNR",
"NNNNNNNNNqqqwqwffckcmjdvvvLvhnvhxmvcfwesswwqwq3;$ ;3qesw===   NNNNNNNNNNNNNNNNR",
"NNNNNNN4qaqeafggscnhcvhxjjmmvGfdvmxgd7wwqqaww7;@; @37qq7==  .NNNNNNNNNNNNNNNNNR",
"NNNNNNqae7wsgdjxccMjdngdghvvvLfdvGhdw77wwwwaw3@@; @;3743=  NNNNNNNNNNNNNNNNNNNR",
"NNNaeaeedsawkgscHmmvjndhxsxmvGdavmggwww4wwaa7@@=;@@=343:;NNNNNNNNNNNNNNNNNNNNNR",
"N73waeeehcccjccmnHHnmvjasfjjvMhakkgww7747ww7=@==:@@=34:;NNNNNNNNNNNNNNNNNNNNNNR"
};
